<svg width="120" height="110" viewBox="0 0 78 74" fill="none" xmlns="http://www.w3.org/2000/svg">
<path d="M1.96447 33.4645C0.0118446 35.4171 0.0118446 38.5829 1.96447 40.5355L33.7843 72.3553C35.7369 74.308 38.9027 74.308 40.8553 72.3553C42.808 70.4027 42.808 67.2369 40.8553 65.2843L12.5711 37L40.8553 8.71573C42.808 6.76311 42.808 3.59728 40.8553 1.64466C38.9027 -0.307961 35.7369 -0.307961 33.7843 1.64466L1.96447 33.4645ZM9.5 32H5.5L5.5 42H9.5V32Z" fill="white"/>
<path opacity="0.8" d="M27.1716 34.1716C25.6095 35.7337 25.6095 38.2663 27.1716 39.8284L52.6274 65.2843C54.1895 66.8464 56.7222 66.8464 58.2843 65.2843C59.8464 63.7222 59.8464 61.1895 58.2843 59.6274L35.6569 37L58.2843 14.3726C59.8464 12.8105 59.8464 10.2778 58.2843 8.71573C56.7222 7.15363 54.1895 7.15363 52.6274 8.71573L27.1716 34.1716ZM34 33H30V41H34V33Z" fill="white"/>
<path opacity="0.5" d="M50.2322 35.2322C49.2559 36.2085 49.2559 37.7915 50.2322 38.7678L66.1421 54.6777C67.1184 55.654 68.7014 55.654 69.6777 54.6777C70.654 53.7014 70.654 52.1184 69.6777 51.1421L55.5355 37L69.6777 22.8579C70.654 21.8816 70.654 20.2986 69.6777 19.3223C68.7014 18.346 67.1184 18.346 66.1421 19.3223L50.2322 35.2322ZM56 34.5H52V39.5H56V34.5Z" fill="white"/>
<path opacity="0.2" d="M69.2929 36.2929C68.9024 36.6834 68.9024 37.3166 69.2929 37.7071L75.6569 44.0711C76.0474 44.4616 76.6805 44.4616 77.0711 44.0711C77.4616 43.6805 77.4616 43.0474 77.0711 42.6569L71.4142 37L77.0711 31.3431C77.4616 30.9526 77.4616 30.3195 77.0711 29.9289C76.6805 29.5384 76.0474 29.5384 75.6569 29.9289L69.2929 36.2929ZM74 36H70V38H74V36Z" fill="white"/>
			</svg>