<svg width="120" height="110" viewBox="0 0 78 74" fill="none" xmlns="http://www.w3.org/2000/svg">
<path d="M76.0355 33.4645C77.9882 35.4171 77.9882 38.5829 76.0355 40.5355L44.2157 72.3553C42.2631 74.308 39.0973 74.308 37.1447 72.3553C35.192 70.4027 35.192 67.2369 37.1447 65.2843L65.4289 37L37.1447 8.71573C35.192 6.76311 35.192 3.59728 37.1447 1.64466C39.0973 -0.307961 42.2631 -0.307961 44.2157 1.64466L76.0355 33.4645ZM68.5 32H72.5V42H68.5V32Z" fill="white"/>
<path opacity="0.8" d="M50.8284 34.1716C52.3905 35.7337 52.3905 38.2663 50.8284 39.8284L25.3726 65.2843C23.8105 66.8464 21.2778 66.8464 19.7157 65.2843C18.1536 63.7222 18.1536 61.1895 19.7157 59.6274L42.3431 37L19.7157 14.3726C18.1536 12.8105 18.1536 10.2778 19.7157 8.71573C21.2778 7.15363 23.8105 7.15363 25.3726 8.71573L50.8284 34.1716ZM44 33H48V41H44V33Z" fill="white"/>
<path opacity="0.5" d="M27.7678 35.2322C28.7441 36.2085 28.7441 37.7915 27.7678 38.7678L11.8579 54.6777C10.8816 55.654 9.29864 55.654 8.32233 54.6777C7.34602 53.7014 7.34602 52.1184 8.32233 51.1421L22.4645 37L8.32233 22.8579C7.34602 21.8816 7.34602 20.2986 8.32233 19.3223C9.29864 18.346 10.8816 18.346 11.8579 19.3223L27.7678 35.2322ZM22 34.5H26V39.5H22V34.5Z" fill="white"/>
<path opacity="0.2" d="M8.70711 36.2929C9.09763 36.6834 9.09763 37.3166 8.70711 37.7071L2.34315 44.0711C1.95262 44.4616 1.31946 44.4616 0.928932 44.0711C0.538408 43.6805 0.538408 43.0474 0.928932 42.6569L6.58579 37L0.928932 31.3431C0.538408 30.9526 0.538408 30.3195 0.928932 29.9289C1.31946 29.5384 1.95262 29.5384 2.34315 29.9289L8.70711 36.2929ZM4 36H8V38H4V36Z" fill="white"/>
	</svg>