<svg width="21" height="11" viewBox="0 0 21 11" fill="none" xmlns="http://www.w3.org/2000/svg">
<path fill-rule="evenodd" clip-rule="evenodd" d="M17.2138 6.9947C17.8773 7.62424 18.5776 8.21656 19.1726 8.90959C19.4355 9.21756 19.6843 9.53537 19.8747 9.89277C20.1445 10.4008 19.9001 10.9599 19.4314 10.9903L16.5176 10.989C15.7661 11.0496 15.1665 10.7556 14.6624 10.2562C14.259 9.85681 13.8854 9.43177 13.4975 9.01893C13.3385 8.85019 13.172 8.69141 12.9731 8.56591C12.5754 8.31498 12.2301 8.39181 12.0028 8.79501C11.7713 9.2051 11.7188 9.65921 11.696 10.1162C11.6648 10.7831 11.4574 10.9584 10.7682 10.9889C9.29525 11.0564 7.89735 10.8399 6.59875 10.1177C5.45386 9.48108 4.56604 8.58233 3.7933 7.56485C2.28874 5.5836 1.13656 3.40653 0.101012 1.16847C-0.13208 0.664227 0.0383857 0.393555 0.610833 0.383975C1.56141 0.366028 2.51185 0.367305 3.46354 0.382697C3.84988 0.38819 4.10564 0.603553 4.25482 0.958275C4.76911 2.18729 5.3984 3.35658 6.18829 4.44042C6.39865 4.72898 6.61314 5.01753 6.91859 5.22063C7.2565 5.44551 7.51377 5.37098 7.67274 5.00514C7.77361 4.77318 7.81777 4.52332 7.84051 4.27488C7.91582 3.42013 7.92574 2.56686 7.79366 1.71511C7.71256 1.18354 7.40449 0.839417 6.85872 0.738825C6.58022 0.687539 6.62169 0.58682 6.75654 0.432323C6.99075 0.165866 7.21102 0 7.65013 0H10.9432C11.4616 0.0994425 11.5768 0.325791 11.6477 0.832775L11.6506 4.38786C11.6449 4.58413 11.7514 5.16654 12.1152 5.29645C12.4063 5.38893 12.5982 5.16258 12.7728 4.98317C13.5613 4.16988 14.124 3.20873 14.6267 2.21347C14.8498 1.77585 15.0417 1.32137 15.2276 0.867264C15.3653 0.530296 15.5815 0.364495 15.972 0.371839L19.1414 0.374586C19.2354 0.374586 19.3305 0.375927 19.4215 0.391064C19.9555 0.479521 20.1019 0.702804 19.9369 1.20966C19.677 2.00488 19.1714 2.66758 18.6769 3.33334C18.1484 4.04412 17.5831 4.73058 17.0589 5.44558C16.5774 6.0985 16.6156 6.42761 17.2138 6.9947Z" fill="white"/>
</svg>
