<svg width="21" height="16" viewBox="0 0 21 16" fill="none" xmlns="http://www.w3.org/2000/svg">
<path d="M7.46176 16.0009C6.59685 16.0009 5.70661 15.9324 4.81103 15.7952C3.23365 15.5533 1.63689 14.7468 1.18506 14.5053L0 13.872L1.28302 13.4596C2.68553 13.0088 3.53869 12.7291 4.5948 12.2912C3.53731 11.7906 2.7223 10.8902 2.32998 9.72613L2.0315 8.84043L2.27627 8.87697C2.04417 8.64831 1.8609 8.41622 1.71883 8.20516C1.21359 7.45505 0.946091 6.53847 1.00301 5.753L1.05916 4.97992L1.53267 5.1592C1.33292 4.79049 1.18857 4.39671 1.10372 3.98399C0.896956 2.97747 1.07 1.90816 1.59111 0.973085L2.00358 0.232963L2.55521 0.880607C4.29983 2.92914 6.50957 4.14433 9.13222 4.50008C9.0251 3.7783 9.10537 3.08173 9.37103 2.45736C9.68035 1.73036 10.2306 1.11389 10.9618 0.674471C11.774 0.186575 12.7588 -0.0498409 13.735 0.00877826C14.7706 0.0709772 15.7109 0.450286 16.4577 1.10643C16.8224 1.01381 17.0911 0.914913 17.4543 0.781268C17.6728 0.700872 17.9206 0.609587 18.2307 0.505176L19.3734 0.120348L18.6282 2.20051C18.6774 2.19648 18.728 2.19305 18.781 2.19081L20.0011 2.13682L19.28 3.10023C19.2386 3.15542 19.2281 3.17108 19.2134 3.19271C19.1553 3.27832 19.083 3.38482 18.0931 4.67683C17.8453 5.00035 17.7215 5.42172 17.7446 5.86353C17.8323 7.54245 17.6216 9.06148 17.1178 10.3782C16.6414 11.624 15.9032 12.6929 14.9238 13.5552C13.7119 14.6219 12.1666 15.3524 10.3306 15.7259C9.42994 15.909 8.46279 16.0009 7.46176 16.0009Z" fill="white"/>
</svg>
