<svg width="11" height="21" viewBox="0 0 11 21" fill="none" xmlns="http://www.w3.org/2000/svg">
<path d="M10.1057 0.00416157L7.58705 0C4.75747 0 2.92887 1.93201 2.92887 4.92231V7.19182H0.396516C0.177691 7.19182 0.000488281 7.37451 0.000488281 7.59986V10.8881C0.000488281 11.1135 0.177893 11.296 0.396516 11.296H2.92887V19.5933C2.92887 19.8186 3.10607 20.0011 3.3249 20.0011H6.6289C6.84773 20.0011 7.02493 19.8184 7.02493 19.5933V11.296H9.98584C10.2047 11.296 10.3819 11.1135 10.3819 10.8881L10.3831 7.59986C10.3831 7.49166 10.3413 7.38804 10.2671 7.31146C10.1929 7.23489 10.0919 7.19182 9.98685 7.19182H7.02493V5.26792C7.02493 4.34322 7.2389 3.8738 8.4086 3.8738L10.1053 3.87317C10.3239 3.87317 10.5011 3.69048 10.5011 3.46534V0.411996C10.5011 0.187063 10.3241 0.00457773 10.1057 0.00416157Z" fill="white"/>
</svg>
