<svg width="20" height="20" viewBox="0 0 20 20" fill="none" xmlns="http://www.w3.org/2000/svg">
<path fill-rule="evenodd" clip-rule="evenodd" d="M16.9886 0H3.09727C1.51045 0 0.219238 1.29122 0.219238 2.87803V16.7693C0.219238 18.3561 1.51045 19.6473 3.09727 19.6473H16.9886C18.5754 19.6473 19.8666 18.3561 19.8666 16.7693V2.87803C19.8666 1.29122 18.5754 0 16.9886 0ZM10.0813 14.9658C7.22469 14.9658 4.90083 12.6419 4.90083 9.7853C4.90083 6.92871 7.22469 4.60485 10.0813 4.60485C12.9379 4.60485 15.2617 6.92871 15.2617 9.7853C15.2617 12.6419 12.9379 14.9658 10.0813 14.9658ZM15.8373 5.75606C14.8852 5.75606 14.1105 4.98139 14.1105 4.02924C14.1105 3.07709 14.8852 2.30242 15.8373 2.30242C16.7895 2.30242 17.5642 3.07709 17.5642 4.02924C17.5642 4.98139 16.7895 5.75606 15.8373 5.75606ZM15.8374 3.45364C15.5197 3.45364 15.2618 3.71162 15.2618 4.02925C15.2618 4.34688 15.5197 4.60485 15.8374 4.60485C16.155 4.60485 16.413 4.34688 16.413 4.02925C16.413 3.71162 16.155 3.45364 15.8374 3.45364ZM6.05202 9.78523C6.05202 7.56375 7.85978 5.75599 10.0813 5.75599C12.3027 5.75599 14.1105 7.56375 14.1105 9.78523C14.1105 12.0067 12.3027 13.8145 10.0813 13.8145C7.85978 13.8145 6.05202 12.0067 6.05202 9.78523Z" fill="white"/>
</svg>
