<svg width="18" height="19" viewBox="0 0 18 19" fill="none" xmlns="http://www.w3.org/2000/svg">
<path d="M17.3763 4.60352C16.2722 4.60352 15.2535 4.25538 14.4354 3.66807C13.4972 2.9948 12.823 2.00721 12.585 0.868914C12.526 0.587668 12.4943 0.29743 12.4913 0H9.33724V8.20289L9.33347 12.696C9.33347 13.8972 8.51161 14.9158 7.37235 15.274C7.04171 15.3779 6.68463 15.4272 6.31281 15.4078C5.83821 15.3829 5.39347 15.2466 5.00691 15.0265C4.1843 14.5583 3.62657 13.7088 3.61145 12.737C3.58765 11.2182 4.87768 9.97992 6.47227 9.97992C6.78703 9.97992 7.08932 10.0288 7.37235 10.1177V7.87561V7.06964C7.07383 7.02756 6.77003 7.00562 6.46282 7.00562C4.71747 7.00562 3.08509 7.69615 1.91824 8.94017C1.0363 9.8803 0.507293 11.0797 0.425674 12.3374C0.318738 13.9897 0.953929 15.5602 2.18577 16.719C2.36677 16.8892 2.55683 17.047 2.75559 17.1927C3.81172 17.9663 5.10289 18.3857 6.46282 18.3857C6.77003 18.3857 7.07383 18.3641 7.37235 18.322C8.64273 18.1429 9.81487 17.5894 10.7399 16.719C11.8765 15.6498 12.5045 14.2303 12.5113 12.7194L12.4951 6.00975C13.0373 6.40788 13.6302 6.73732 14.2665 6.99303C15.2561 7.39044 16.3055 7.59185 17.3854 7.59149V5.41165V4.6028C17.3861 4.60352 17.3771 4.60352 17.3763 4.60352Z" fill="white"/>
</svg>
