<svg width="21" height="14" viewBox="0 0 21 14" fill="none" xmlns="http://www.w3.org/2000/svg">
<path d="M19.2215 1.20187C18.4996 0.348213 17.1666 0 14.6209 0H5.38005C2.77609 0 1.42053 0.370675 0.701266 1.27952C0 2.16565 0 3.47129 0 5.27833V8.72253C0 12.2233 0.832047 14.0008 5.38005 14.0008H14.621C16.8286 14.0008 18.0519 13.6935 18.8433 12.9402C19.6549 12.1676 20.0011 10.9063 20.0011 8.72253V5.27833C20.0011 3.37265 19.9469 2.05931 19.2215 1.20187ZM12.8408 7.47593L8.64455 9.6573C8.55074 9.70608 8.44816 9.73027 8.3457 9.73027C8.22969 9.73027 8.11394 9.69921 8.01142 9.63747C7.81838 9.52112 7.7005 9.313 7.7005 9.08852V4.73977C7.7005 4.51567 7.81806 4.30774 8.01071 4.19133C8.20343 4.07492 8.44312 4.06696 8.64307 4.17028L12.8393 6.3376C13.0528 6.44785 13.1869 6.66707 13.1872 6.90625C13.1875 7.14562 13.054 7.36517 12.8408 7.47593Z" fill="white"/>
</svg>
